<?xml version="1.0" standalone="no"?>
<!DOCTYPE svg PUBLIC "-//W3C//DTD SVG 20010904//EN"
 "http://www.w3.org/TR/2001/REC-SVG-20010904/DTD/svg10.dtd">
<svg version="1.0" xmlns="http://www.w3.org/2000/svg"
 width="300.000000pt" height="300.000000pt" viewBox="0 0 300.000000 300.000000"
 preserveAspectRatio="xMidYMid meet">
<metadata>
Created by potrace 1.10, written by Peter Selinger 2001-2011
</metadata>
<g transform="translate(0.000000,300.000000) scale(0.100000,-0.100000)"
fill="#000000" stroke="none">
<path d="M901 1918 c0 -114 2 -128 12 -101 7 18 22 43 35 55 21 21 33 23 147
26 l125 4 0 -277 c0 -308 -5 -337 -60 -358 -16 -6 -30 -14 -30 -17 0 -9 714 0
765 10 163 33 258 135 285 305 30 188 -42 367 -173 433 -95 47 -149 52 -644
52 l-463 0 1 -132z m939 82 c154 -18 245 -84 285 -207 13 -40 16 -79 14 -165
-4 -99 -7 -120 -32 -170 -33 -67 -81 -110 -157 -140 -52 -21 -74 -22 -375 -26
l-320 -4 3 299 c3 295 3 299 -19 326 l-22 29 -121 -4 c-66 -2 -128 -6 -136 -8
-10 -4 -16 4 -18 23 -7 58 -16 57 417 57 218 0 434 -5 481 -10z"/>
<path d="M1451 1914 c-20 -25 -21 -39 -21 -269 l0 -243 32 -27 33 -28 155 6
c213 8 278 34 337 134 23 40 28 61 31 139 5 101 -6 147 -46 207 -47 70 -183
126 -237 97 -20 -10 -33 -11 -64 -2 -21 7 -75 12 -119 12 -75 0 -82 -2 -101
-26z m220 -30 c18 -9 38 -32 50 -57 l19 -42 0 59 0 58 47 -7 c133 -20 196
-100 196 -250 1 -106 -28 -166 -98 -210 -48 -30 -49 -30 -232 -35 l-183 -5 0
253 0 252 85 0 c59 0 96 -5 116 -16z"/>
<path d="M750 1100 c-22 -22 -26 -60 -10 -91 9 -15 20 -19 56 -17 44 1 45 2
42 32 -2 25 -8 32 -30 34 -16 2 -28 -1 -28 -7 0 -6 9 -11 21 -11 23 0 21 -18
-3 -34 -25 -15 -50 11 -46 47 4 39 30 57 58 39 16 -10 20 -10 20 2 0 30 -52
34 -80 6z"/>
<path d="M867 1113 c-11 -10 -8 -123 3 -123 6 0 10 28 10 65 0 65 -1 71 -13
58z"/>
<path d="M905 1110 c-3 -5 3 -10 14 -10 19 0 21 -6 21 -55 0 -30 5 -55 10 -55
6 0 10 25 10 55 0 48 2 55 20 55 11 0 20 5 20 10 0 6 -20 10 -44 10 -25 0 -48
-4 -51 -10z"/>
<path d="M1020 1056 c0 -42 4 -66 11 -66 7 0 10 12 7 30 -4 28 -3 30 30 30 32
0 34 -2 30 -30 -3 -17 0 -30 6 -30 7 0 10 23 7 67 -3 50 -6 60 -10 38 -5 -25
-11 -30 -36 -30 -25 0 -30 4 -27 22 2 12 -2 24 -8 28 -6 4 -10 -16 -10 -59z"/>
<path d="M1152 1060 l3 -65 34 -3 c43 -4 51 8 51 78 0 68 -18 56 -22 -15 -3
-42 -6 -50 -23 -50 -17 0 -20 8 -23 50 -2 28 -8 55 -13 60 -7 7 -9 -12 -7 -55z"/>
<path d="M1278 1055 l-3 -65 36 0 c45 0 68 23 51 50 -6 11 -9 27 -5 36 8 20
-21 44 -53 44 -20 0 -23 -5 -26 -65z m60 28 c-2 -10 -13 -19 -26 -21 -17 -3
-22 2 -22 17 0 16 6 21 26 21 19 0 25 -5 22 -17z m7 -58 c0 -14 -8 -21 -27
-23 -24 -3 -28 0 -28 23 0 23 4 26 28 23 19 -2 27 -9 27 -23z"/>
<path d="M1473 1110 c-47 -19 -58 -92 -20 -128 24 -23 71 -30 82 -12 4 6 -8
10 -27 10 -19 0 -39 5 -46 12 -17 17 -15 74 4 92 34 34 94 9 94 -39 0 -13 -4
-27 -10 -30 -6 -4 -10 6 -10 23 0 22 -6 31 -21 35 -35 9 -50 -3 -47 -37 3 -29
6 -31 43 -33 47 -1 65 10 65 42 0 49 -59 85 -107 65z m47 -69 c0 -11 -5 -23
-11 -27 -15 -9 -33 12 -26 30 9 23 37 20 37 -3z"/>
<path d="M1590 1109 c0 -5 9 -9 20 -9 18 0 20 -7 20 -55 0 -30 5 -55 10 -55 6
0 10 25 10 55 0 49 2 55 21 55 11 0 18 4 15 9 -4 5 -26 9 -51 9 -25 0 -45 -4
-45 -9z"/>
<path d="M1708 1114 c-5 -4 -8 -34 -8 -66 l0 -58 39 0 c89 0 98 112 11 126
-19 3 -38 2 -42 -2z m70 -26 c13 -13 16 -47 4 -65 -4 -6 -20 -15 -35 -18 -27
-7 -27 -7 -27 44 0 47 2 51 23 51 13 0 28 -5 35 -12z"/>
<path d="M1838 1055 c-2 -48 0 -65 10 -65 8 0 10 8 6 25 -5 21 -3 25 15 25 14
0 25 -9 31 -25 5 -14 14 -25 19 -25 11 0 4 27 -11 47 -5 7 -5 14 2 18 31 19
-3 65 -48 65 -18 0 -21 -8 -24 -65z m62 25 c0 -15 -7 -20 -25 -20 -18 0 -25 5
-25 20 0 15 7 20 25 20 18 0 25 -5 25 -20z"/>
<path d="M1965 1068 c-10 -29 -20 -59 -23 -65 -2 -7 1 -13 7 -13 6 0 11 7 11
15 0 10 10 15 30 15 20 0 30 -5 30 -15 0 -8 6 -15 14 -15 10 0 9 14 -9 62 -12
34 -27 64 -33 66 -5 1 -18 -21 -27 -50z m41 -25 c-2 -3 -11 -3 -19 -1 -11 2
-12 9 -5 28 l10 25 9 -24 c5 -13 7 -26 5 -28z"/>
<path d="M2080 1100 c-22 -22 -26 -60 -10 -91 8 -15 20 -19 54 -17 43 1 44 2
43 32 -2 26 -7 32 -29 34 -16 2 -28 -1 -28 -7 0 -6 9 -11 21 -11 23 0 21 -18
-3 -34 -25 -15 -50 11 -46 47 4 39 30 57 58 39 16 -10 20 -10 20 2 0 30 -52
34 -80 6z"/>
<path d="M2202 1108 c-22 -22 -13 -47 23 -62 19 -8 35 -20 35 -26 0 -17 -27
-23 -50 -10 -18 10 -21 9 -18 -2 3 -7 18 -14 35 -16 59 -6 70 55 12 68 -13 3
-25 14 -27 24 -4 16 1 18 27 13 32 -7 43 6 15 17 -24 9 -39 7 -52 -6z"/>
</g>
</svg>
